:version 1.10
:name ASF
:units
  mass 1
  length 1
  angle deg
:documentation
  ASF file generated by Kaydara
:root
  axis xyz
  order  tx ty tz rx ry rz
  position 0 0 0
  orientation 0 0 0
:bonedata
  begin
    id 1
    name RightUpLegDummy
    direction -1 2.30186e-007 8.31532e-007
    length 4.04083
    axis 0 0 0 xyz
  end
  begin
    id 2
    name RightUpLeg
    direction -0.000919234 -0.999985 0.00544864
    length 17.4221
    axis -3.80308 -0.00076134 -0.0523649 xyz
    dof rx ry rz
  end
  begin
    id 3
    name RightLeg
    direction -0.000919271 -0.999984 -0.00555045
    length 17.1239
    axis 4.00314 0.0181274 -0.183583 xyz
    dof rx ry rz
  end
  begin
    id 4
    name RightFoot
    direction -2.57843e-005 -4.04509e-007 1
    length 6.72091
    axis 8.18909e-005 -0.122003 -0.403008 xyz
    dof rx ry rz
  end
  begin
    id 5
    name RightToes
    direction 0.00116825 -0.014069 0.9999
    length 3.85082
    axis 0.000514414 0.540638 -0.356797 xyz
    dof rx ry rz
  end
  begin
    id 6
    name SpineDummy
    direction 0.0168869 0.966876 -0.254689
    length 6.99894
    axis 0 0 0 xyz
  end
  begin
    id 7
    name Spine
    direction -0.0132008 0.999903 0.00446247
    length 11.1999
    axis -0.00148109 0.00725429 0.756411 xyz
    dof rx ry rz
  end
  begin
    id 8
    name Spine1
    direction 0 0 0
    length 0
    axis -0.000934958 0.0245693 1.46543 xyz
    dof rx ry rz
  end
  begin
    id 9
    name HEadDummy
    direction -0.0255732 0.999672 0.00128215
    length 3.43865
    axis -0.000934958 0.0245693 1.46543 xyz
  end
  begin
    id 10
    name HEad
    direction -0.0472656 0.980052 0.19304
    length 5.12695
    axis -0.000934954 0.0245693 1.46543 xyz
    dof rx ry rz
  end
  begin
    id 11
    name LeftShoulder1Dummy
    direction 0.953098 0.301717 -0.023914
    length 3.68488
    axis -0.000934958 0.0245693 1.46543 xyz
  end
  begin
    id 12
    name LeftShoulder1
    direction 0.962466 0.271167 0.0112566
    length 3.13809
    axis -0.000934958 0.0245693 1.46543 xyz
    dof rx ry rz
  end
  begin
    id 13
    name LeftArm
    direction 0.999943 0.00455037 -0.00961766
    length 11.3419
    axis -23.1648 0.685459 1.22814 xyz
    dof rx ry rz
  end
  begin
    id 14
    name LeftForeArm
    direction 0.999332 0.0131969 0.0340885
    length 8.70632
    axis -9.90633 0.618216 0.0826942 xyz
    dof rx ry rz
  end
  begin
    id 15
    name LeftHand
    direction 0.994373 -0.0366703 0.0993905
    length 5.32135
    axis 0.00675269 0.680415 0.445699 xyz
    dof rx ry rz
  end
  begin
    id 16
    name RightShoulderDummy
    direction -0.967298 0.252589 -0.0230903
    length 3.68488
    axis -0.000934958 0.0245693 1.46543 xyz
  end
  begin
    id 17
    name RightShoulder
    direction -0.975062 0.221602 0.0120823
    length 3.13809
    axis 0.216257 0.0246515 1.45863 xyz
    dof rx ry rz
  end
  begin
    id 18
    name RightArm
    direction -0.99886 -0.00851186 -0.0469687
    length 10.3947
    axis -23.196 0.23503 -0.532632 xyz
    dof rx ry rz
  end
  begin
    id 19
    name RightForeArm
    direction -0.99909 0.00114866 0.0426317
    length 8.68355
    axis -9.91764 -0.134943 0.610517 xyz
    dof rx ry rz
  end
  begin
    id 20
    name RightHand
    direction -0.992888 -0.0489538 0.10852
    length 5.28593
    axis -0.00275396 -0.197403 0.246414 xyz
    dof rx ry rz
  end
  begin
    id 21
    name LeftUpLegDummy
    direction 1 -2.30186e-007 -8.31532e-007
    length 4.04083
    axis 0 0 0 xyz
  end
  begin
    id 22
    name LeftUpLeg
    direction -0.000920097 -1 2.79241e-006
    length 17.4221
    axis -3.48782 0.00143434 -0.0532288 xyz
    dof rx ry rz
  end
  begin
    id 23
    name LeftLeg
    direction -0.000920097 -1 2.7912e-006
    length 17.1239
    axis 3.68162 -0.00806512 -0.0529896 xyz
    dof rx ry rz
  end
  begin
    id 24
    name LeftFoot
    direction -2.57845e-005 -3.987e-007 1
    length 6.72091
    axis 3.02372e-005 -0.00147829 -0.214229 xyz
    dof rx ry rz
  end
  begin
    id 25
    name LeftToes
    direction 0.00813577 -0.00488255 0.999955
    length 3.85048
    axis 3.89895e-005 -0.0014783 -0.214229 xyz
    dof rx ry rz
  end
:hierarchy
  begin
    root RightUpLegDummy SpineDummy LeftUpLegDummy
    RightUpLegDummy RightUpLeg
    RightUpLeg RightLeg
    RightLeg RightFoot
    RightFoot RightToes
    SpineDummy Spine
    Spine Spine1
    Spine1 HEadDummy LeftShoulder1Dummy RightShoulderDummy
    HEadDummy HEad
    LeftShoulder1Dummy LeftShoulder1
    LeftShoulder1 LeftArm
    LeftArm LeftForeArm
    LeftForeArm LeftHand
    RightShoulderDummy RightShoulder
    RightShoulder RightArm
    RightArm RightForeArm
    RightForeArm RightHand
    LeftUpLegDummy LeftUpLeg
    LeftUpLeg LeftLeg
    LeftLeg LeftFoot
    LeftFoot LeftToes
  end

:SAMPLES-PER-SECOND 30
:FULLY-SPECIFIED
:DEGREES
77
root  -17.4518 34.8163 -14.7629 -173.765 4.38347 179.622
RightUpLeg  -3.13116 -12.9427 -2.78115
RightLeg  0.905462 -1.19261 0.0581846
RightFoot  7.24031 0.0278943 0.00548028
RightToes  -26.2749 -0.12073 -0.21816
Spine  -3.48518 0.423199 -0.743219
Spine1  -6.48443 1.1223 -0.567279
HEad  -65.1202 -13.9887 9.37772
LeftShoulder1  -1.94126e-019 -3.10601e-018 -2.51263e-017
LeftArm  16.6982 -9.91243 -76.8465
LeftForeArm  158.841 -61.0321 -160.859
LeftHand  -0.888608 -0.159788 18.6191
RightShoulder  -4.96962e-017 0 -2.36833e-017
RightArm  14.7871 8.99283 82.3989
RightForeArm  -176.605 66.2769 159.099
RightHand  -0.0413916 -5.23371 -29.9087
LeftUpLeg  -3.52697 1.98889 2.84923
LeftLeg  5.53055 16.2298 0.516117
LeftFoot  4.97814 -0.0668671 1.64217
LeftToes  -20.8571 1.7763e-006 6.54387e-008
78
root  -17.4621 34.8154 -14.7715 -173.705 4.20273 179.601
RightUpLeg  -3.14407 -13.1277 -2.806
RightLeg  0.898307 -1.16823 0.0571444
RightFoot  7.20623 0.0273239 0.0136309
RightToes  -26.1929 -0.12073 -0.217968
Spine  -3.32488 0.395872 -0.765035
Spine1  -6.24 1.04161 -0.602644
HEad  -64.9441 -11.6308 9.41605
LeftShoulder1  -1.94126e-019 -3.10601e-018 -2.51263e-017
LeftArm  21.3402 -10.3374 -78.7466
LeftForeArm  155.243 -60.4724 -160.944
LeftHand  -0.499229 3.08613 24.9055
RightShoulder  -4.96962e-017 0 -2.36833e-017
RightArm  18.4433 8.93382 83.5972
RightForeArm  -174.109 65.1143 160.422
RightHand  0.313368 -6.43572 -33.4927
LeftUpLeg  -3.65209 1.97402 2.82178
LeftLeg  5.62193 16.0756 0.536654
LeftFoot  4.88227 -0.0639207 1.60036
LeftToes  -20.5232 1.7763e-006 6.54387e-008
79
root  -17.4774 34.8148 -14.7356 -173.669 3.94708 179.553
RightUpLeg  -3.24057 -12.808 -2.8362
RightLeg  0.987377 -1.74097 0.0823595
RightFoot  7.16903 0.0322928 -0.0573754
RightToes  -26.1403 -0.12073 -0.217776
Spine  -3.12752 0.328693 -0.788026
Spine1  -5.81317 0.900657 -0.666453
HEad  -66.3899 -9.19391 9.8042
LeftShoulder1  -1.94126e-019 -3.10601e-018 -2.51263e-017
LeftArm  16.6518 -9.03354 -77.9192
LeftForeArm  163.585 -58.568 -162.976
LeftHand  -1.01814 -1.08317 18.3322
RightShoulder  -4.96962e-017 0 -2.36833e-017
RightArm  13.9657 8.63217 82.96
RightForeArm  -169.266 62.5616 162.875
RightHand  0.0356014 -5.51206 -31.7304
LeftUpLeg  -3.84402 1.63381 2.75928
LeftLeg  5.73341 16.1516 0.57016
LeftFoot  4.91625 -0.064582 1.61494
LeftToes  -20.6634 1.7763e-006 6.54387e-008
80
root  -17.4921 34.8149 -14.7107 -173.663 3.64528 179.497
RightUpLeg  -3.26429 -13.0087 -2.89446
RightLeg  1.02723 -1.87008 0.0871566
RightFoot  7.13856 0.0336007 -0.0760658
RightToes  -26.0568 -0.12073 -0.217586
Spine  -3.13832 0.322265 -0.821235
Spine1  -5.77283 0.892176 -0.746794
HEad  -67.376 -7.37853 9.8084
LeftShoulder1  -1.94126e-019 -3.10601e-018 -2.51263e-017
LeftArm  11.5577 -8.93948 -76.0393
LeftForeArm  162.659 -57.1661 -163.74
LeftHand  -0.994553 -1.25134 17.4783
RightShoulder  -4.96962e-017 0 -2.36833e-017
RightArm  7.47497 8.38424 80.8129
RightForeArm  -168.732 60.5001 164.291
RightHand  -0.435251 -3.7543 -30.3411
LeftUpLeg  -3.95902 1.64504 2.71055
LeftLeg  5.74392 15.825 0.561776
LeftFoot  4.99595 -0.0637768 1.607
LeftToes  -20.8287 1.7763e-006 6.54387e-008
81
root  -17.5039 34.8162 -14.7012 -173.57 3.29538 179.475
RightUpLeg  -3.29586 -13.4442 -2.90934
RightLeg  0.982396 -1.78232 0.0844639
RightFoot  7.15959 0.0332447 -0.0709795
RightToes  -26.0418 -0.12073 -0.217399
Spine  -3.2689 0.435068 -0.821106
Spine1  -5.9908 1.11686 -0.777731
HEad  -67.4484 -6.38869 9.65128
LeftShoulder1  -1.94126e-019 -3.10601e-018 -2.51263e-017
LeftArm  6.28674 -8.50765 -73.4729
LeftForeArm  160.526 -56.0306 -164.21
LeftHand  -0.908256 -0.158349 19.0281
RightShoulder  -4.96962e-017 0 -2.36833e-017
RightArm  -0.218916 7.36704 77.7746
RightForeArm  -170.96 58.6391 165.216
RightHand  -0.0818295 -5.09135 -31.6415
LeftUpLeg  -4.1329 1.58845 2.69491
LeftLeg  5.74434 15.5494 0.552335
LeftFoot  5.02249 -0.0621586 1.58667
LeftToes  -20.7648 1.7763e-006 6.54387e-008
82
root  -17.5152 34.8207 -14.693 -173.463 2.8864 179.446
RightUpLeg  -3.31101 -13.7525 -2.92507
RightLeg  0.903955 -1.87325 0.0913102
RightFoot  7.23721 0.0344584 -0.0883239
RightToes  -26.1733 -0.12073 -0.217215
Spine  -3.34637 0.408957 -0.825255
Spine1  -6.1256 1.05918 -0.817101
HEad  -67.1379 -5.36658 9.39575
LeftShoulder1  -1.94126e-019 -3.10601e-018 -2.51263e-017
LeftArm  1.66914 -8.34341 -72.0553
LeftForeArm  159.671 -55.8682 -164.23
LeftHand  -0.814009 1.08724 21.8753
RightShoulder  -4.96962e-017 0 -2.36833e-017
RightArm  -4.54175 7.74024 76.485
RightForeArm  -176.633 58.6856 164.719
RightHand  0.6853 -7.52784 -35.6943
LeftUpLeg  -4.29704 1.16974 2.66327
LeftLeg  5.69373 15.5738 0.539588
LeftFoot  5.09074 -0.0629807 1.60451
LeftToes  -20.7284 1.7763e-006 6.54387e-008
83
root  -17.5246 34.8234 -14.6831 -173.468 2.62558 179.404
RightUpLeg  -3.28824 -13.7361 -2.97189
RightLeg  0.932775 -2.1377 0.1031
RightFoot  7.19982 0.0365439 -0.118127
RightToes  -26.0336 -0.12073 -0.217037
Spine  -3.43232 0.384497 -0.789925
Spine1  -6.29456 1.02895 -0.775213
HEad  -66.4596 -4.42482 9.05209
LeftShoulder1  -1.94126e-019 -3.10601e-018 -2.51263e-017
LeftArm  0.735033 -9.43193 -73.3168
LeftForeArm  159.055 -57.1332 -163.455
LeftHand  -0.758782 1.6165 23.2034
RightShoulder  -4.96962e-017 0 -2.36833e-017
RightArm  -2.90259 9.45336 77.3948
RightForeArm  -178.693 60.0609 163.706
RightHand  0.897429 -8.12121 -36.5304
LeftUpLeg  -4.27994 0.767251 2.60893
LeftLeg  5.54893 15.728 0.505528
LeftFoot  5.16939 -0.0649653 1.64062
LeftToes  -20.5096 1.7763e-006 6.54387e-008
84
root  -17.5347 34.8246 -14.6862 -173.557 2.52934 179.383
RightUpLeg  -3.22591 -13.654 -3.02856
RightLeg  1.02873 -2.30362 0.107245
RightFoot  7.16423 0.037535 -0.132292
RightToes  -26.0839 -0.12073 -0.216864
Spine  -3.49167 0.451986 -0.802405
Spine1  -6.43795 1.17814 -0.796711
HEad  -65.7199 -4.03056 9.1206
LeftShoulder1  -1.94126e-019 -3.10601e-018 -2.51263e-017
LeftArm  6.24863 -11.4306 -75.4832
LeftForeArm  159.674 -58.827 -162.459
LeftHand  -0.840846 0.876566 21.5569
RightShoulder  -4.96962e-017 0 -2.36833e-017
RightArm  4.94294 11.2834 79.5044
RightForeArm  -175.476 62.2789 162.502
RightHand  0.387074 -6.68031 -33.5751
LeftUpLeg  -4.11889 0.756999 2.58267
LeftLeg  5.37172 15.6374 0.454903
LeftFoot  5.29881 -0.0665478 1.67065
LeftToes  -20.9073 1.7763e-006 6.54387e-008
85
root  -17.5475 34.8254 -14.71 -173.629 2.41125 179.356
RightUpLeg  -3.12197 -13.7688 -3.09995
RightLeg  1.08465 -2.3136 0.105461
RightFoot  7.0994 0.0368799 -0.12293
RightToes  -26.003 -0.12073 -0.216698
Spine  -3.46747 0.524687 -0.866395
Spine1  -6.45625 1.32629 -0.883894
HEad  -65.1359 -3.81219 9.28741
LeftShoulder1  -1.94126e-019 -3.10601e-018 -2.51263e-017
LeftArm  15.9829 -13.3516 -78.0459
LeftForeArm  159.706 -60.3586 -161.428
LeftHand  -0.965522 -0.696861 18.4708
RightShoulder  -4.96962e-017 0 -2.36833e-017
RightArm  15.9963 13.0657 81.943
RightForeArm  -175.876 64.7735 160.527
RightHand  0.280081 -6.37854 -31.9267
LeftUpLeg  -3.94328 0.748399 2.54271
LeftLeg  5.18691 15.537 0.402533
LeftFoot  5.33231 -0.0664362 1.67449
LeftToes  -20.7583 1.7763e-006 6.54387e-008
86
root  -17.5565 34.8259 -14.737 -173.617 2.1649 179.317
RightUpLeg  -3.02363 -14.0841 -3.16426
RightLeg  1.03489 -2.23873 0.103991
RightFoot  7.07162 0.0359899 -0.11021
RightToes  -26.0896 -0.12073 -0.216541
Spine  -3.39028 0.550229 -0.868495
Spine1  -6.36196 1.36439 -0.877696
HEad  -65.2016 -3.56171 9.19154
LeftShoulder1  -1.94126e-019 -3.10601e-018 -2.51263e-017
LeftArm  18.8479 -12.4255 -79.1109
LeftForeArm  157.054 -59.758 -161.614
LeftHand  -0.86275 1.06631 23.0524
RightShoulder  -4.96962e-017 0 -2.36833e-017
RightArm  19.0793 12.7815 83.2386
RightForeArm  -171.974 64.2753 161.331
RightHand  0.323881 -6.44139 -34.2895
LeftUpLeg  -3.98562 0.694023 2.50493
LeftLeg  5.24525 15.3508 0.413265
LeftFoot  5.30011 -0.0642915 1.64683
LeftToes  -20.7094 1.7763e-006 6.54387e-008
